<svg width="1000" height="1000" viewBox="0 0 264.583 264.583" xmlns:xlink="http://www.w3.org/1999/xlink" xmlns="http://www.w3.org/2000/svg"><defs><linearGradient id="a"><stop style="stop-color:#ef4565;stop-opacity:1" offset="0"/><stop style="stop-color:#ef4565;stop-opacity:0" offset="1"/></linearGradient><linearGradient xlink:href="#a" id="b" x1="81.334" y1="128.434" x2="138.888" y2="128.434" gradientUnits="userSpaceOnUse"/></defs><path style="fill:#094067;fill-opacity:1;stroke:none;stroke-width:6;stroke-linecap:round;stroke-linejoin:round;stroke-miterlimit:4;stroke-dasharray:none;stroke-opacity:1;paint-order:stroke fill markers;stop-color:#000" d="M389 262c-17.4 25.4-246.991 135.34-277.688 132.97-30.697-2.368-240.703-146.23-254-174C-155.985 193.202-136.4-60.6-119-86c17.4-25.4 246.991-135.34 277.688-132.97 30.697 2.368 240.703 146.23 254 174C425.985-17.202 406.4 236.6 389 262Z" transform="matrix(.40757 0 0 .39682 77.787 97.905)"/><path style="fill:#fffffe;fill-opacity:1;stroke:#3da9fc;stroke-width:1.5875;stroke-linecap:butt;stroke-linejoin:miter;stroke-miterlimit:4;stroke-dasharray:none;stroke-opacity:1" d="m121.493 191.862 19.415-106.986s-178.035 26.437-19.415 106.986z"/><path style="fill:#ef4565;fill-opacity:1;stroke:#3da9fc;stroke-width:1.5875;stroke-linecap:butt;stroke-linejoin:miter;stroke-miterlimit:4;stroke-dasharray:none;stroke-opacity:1" d="m141.294 84.432-18.478 107.695s208.491-31.69 18.478-107.695z"/><path style="fill:url(#b);fill-opacity:1;stroke:#3da9fc;stroke-width:1.5875;stroke-linecap:butt;stroke-linejoin:miter;stroke-miterlimit:4;stroke-dasharray:none;stroke-opacity:1" d="m141.001 84.268-19.97 105.94S27.818 14.872 141 84.268z"/></svg>