<!--?xml version="1.0" encoding="utf-8"?-->
<!-- Generator: Adobe Illustrator 18.1.1, SVG Export Plug-In . SVG Version: 6.00 Build 0)  -->

<svg version="1.1" id="_x32_" xmlns="http://www.w3.org/2000/svg" xmlns:xlink="http://www.w3.org/1999/xlink" x="0px" y="0px" viewBox="0 0 512 512" style="width: 256px; height: 256px; opacity: 1;" xml:space="preserve">
<style type="text/css">
	.st0{fill:#4B4B4B;}
</style>
<g>
	<path class="st0" d="M493.266,186.604c-2.678-7.794-7.009-14.234-11.66-19.99c-3.512-4.306-7.249-8.251-10.969-11.988
		c-5.565-5.597-11.034-10.793-15.444-15.7c-4.442-4.875-7.714-9.422-9.334-13.151c-1.572-3.56-3.512-8.275-5.869-13.696
		c-4.106-9.51-9.43-21.186-16.599-33.374c-5.389-9.149-11.804-18.62-19.598-27.721c-11.659-13.64-26.462-26.478-45.153-35.852
		C339.947,5.75,317.438-0.024,291.089,0c-26.759-0.024-49.572,5.942-68.432,15.588c-14.153,7.217-26.061,16.43-36.028,26.454
		c-14.955,15.043-25.62,31.834-33.55,46.957c-3.969,7.554-7.241,14.699-10.008,21.001c-2.743,6.295-4.988,11.764-6.768,15.773
		c-1.636,3.785-4.988,8.42-9.527,13.392c-3.391,3.72-7.385,7.65-11.555,11.78c-6.246,6.214-12.926,12.837-18.523,20.792
		c-2.791,3.978-5.325,8.339-7.193,13.231c-1.869,4.876-3.055,10.312-3.047,16.054c0,4.089,0.594,8.275,1.812,12.429
		c1.211,4.138,3.015,8.211,5.364,12.188c2.574,4.394,5.677,8.284,9.214,11.499c5.284,4.844,11.474,8.124,17.649,10
		c6.199,1.901,12.381,2.534,18.331,2.534c5.566,0,10.986-0.553,16.19-1.323c7.794-1.155,15.196-2.774,21.755-4.026
		c6.544-1.274,12.309-2.1,16.166-2.085c2.462-0.016,4.057,0.337,4.666,0.562l-1.283-0.464l1.291,0.464
		c0.826,0.305,1.676,0.674,2.534,1.042c0.241,0.498,0.505,1.003,0.802,1.492c7.36,11.819,10.777,24.393,10.801,37.479
		c0,14.482-4.314,29.638-13.062,44.28c-7.016,11.772-16.888,23.158-29.454,33.294c5.485,5.982,10.866,12.092,16.134,18.042
		c1.275,1.459,2.566,2.886,3.809,4.322c14.602-11.972,26.461-25.636,35.21-40.31c10.938-18.283,17.024-38.258,17.273-58.289
		c0.024-0.441,0.024-0.89,0.024-1.34c0-5.781-0.505-11.546-1.499-17.256c0.938,0.401,1.86,0.826,2.838,1.218
		c2.478,1.011,5.092,1.957,7.794,2.83c0.578,4.499,1.099,9.174,1.532,14.009v0.048c0.85,9.638,1.371,19.902,1.371,30.447
		c0,18.548-1.587,37.952-5.565,56.331c-2.951,13.752-7.249,26.976-13.087,38.875c-2.197,4.483-4.594,8.748-7.225,12.838
		l25.268,16.029c0.705-1.067,1.371-2.166,2.036-3.248c11.074-18.235,18.13-38.546,22.485-59.203
		c4.362-20.648,6.014-41.681,6.014-61.624c0-13.576-0.778-26.598-2.028-38.675c3.063,0.208,6.199,0.337,9.47,0.337
		c3.271,0,6.423-0.096,9.478-0.305c0.496,35.026,3.296,65.2,7.947,91.222c3.648,20.592,8.459,38.61,14.168,54.367
		c1.347,3.656,2.71,7.168,4.13,10.56c-2.742,2.317-5.67,4.467-8.828,6.503c-5.517,3.592-11.7,6.784-18.628,9.566
		c-9.59,3.833-18.107,5.397-26.053,5.397c-5.493,0-10.762-0.754-15.949-2.174c-2.141-0.569-4.258-1.251-6.375-2.061
		c-1.363-0.513-2.734-1.09-4.098-1.732c-4.996-2.213-9.951-5.044-14.906-8.42c-3.464-2.358-6.929-4.98-10.368-7.826
		c-2.71-2.213-5.413-4.603-8.075-7.033c-4.836-4.45-9.647-9.27-14.434-14.313c-3.769-3.946-7.53-8.051-11.275-12.213
		c-2.366-2.654-4.764-5.325-7.136-8.019c-6.616-7.505-13.279-15.115-20.047-22.468c-2.462-2.67-4.924-5.3-7.402-7.898
		c-1.155-1.187-2.309-2.374-3.464-3.52c-8.524-8.581-17.36-16.575-26.895-23.198c-9.534-6.6-19.854-11.9-31.233-14.642
		c-8.026-1.916-16.118,3.031-18.042,11.082c-1.916,8.026,3.039,16.086,11.05,18.042c5.878,1.388,11.98,4.154,18.331,8.228
		c6.648,4.25,13.535,9.96,20.512,16.631c2.919,2.758,5.822,5.709,8.773,8.772c-2.758,0.81-5.557,1.484-8.364,2.085
		c-1.25,0.289-2.518,0.513-3.801,0.746c-7.906,1.459-15.917,2.269-23.968,2.862c-7.008,0.545-14.001,0.97-20.945,1.652
		c-5.22,0.513-10.408,1.203-15.588,2.277c-7.754,1.636-15.564,4.186-22.83,8.716c-3.632,2.27-7.096,5.02-10.216,8.268
		c-3.128,3.256-5.926,6.992-8.3,11.154c-4.106,7.16-1.612,16.318,5.566,20.416c7.176,4.089,16.325,1.612,20.439-5.573
		c1.948-3.4,3.961-5.63,6.343-7.489c2.076-1.596,4.491-2.903,7.481-4.034c5.196-1.973,12.212-3.215,20.585-3.986
		c12.573-1.282,28.025-1.604,44.872-4.459c6.391-1.106,12.998-2.614,19.718-4.698c2.132-0.673,4.266-1.395,6.431-2.181
		c1.451-0.538,2.902-1.115,4.378-1.716c2.469,2.774,4.939,5.605,7.441,8.427c1.347,1.484,2.67,2.991,4.018,4.482
		c8.227,9.133,16.719,18.283,25.764,26.751c2.686,2.518,5.445,5.003,8.259,7.401c-3.063,2.044-6.295,3.969-9.71,5.734
		c-1.908,0.994-3.897,1.932-5.934,2.838c-14.554,6.342-32.34,10.175-54.399,10.175c-8.549,0-17.722-0.585-27.561-1.82
		c-8.188-1.026-15.669,4.78-16.695,12.991c-1.042,8.195,4.772,15.668,12.983,16.71c10.953,1.38,21.378,2.037,31.273,2.037
		c15.131,0,29.027-1.556,41.793-4.546c16.912-3.954,31.746-10.497,44.464-18.988c3.28-2.15,6.392-4.467,9.39-6.897
		c3.368,1.901,6.856,3.649,10.424,5.189c1.708,0.802,3.464,1.508,5.244,2.164c10.12,3.786,21.018,6.022,32.476,6.007
		c11.948,0.016,24.425-2.414,37.175-7.53c7.634-3.032,14.723-6.608,21.266-10.664c3.079-1.885,6.038-3.898,8.861-5.983
		c1.363,2.214,2.734,4.378,4.13,6.447c0.585,0.858,1.162,1.7,1.74,2.502c7.442,10.52,15.524,19.157,23.944,26.125
		c9.086,7.522,18.58,13.071,28.026,16.96c7.626,3.135,16.367-0.506,19.542-8.155c3.143-7.634-0.513-16.375-8.147-19.534
		c-8.965-3.705-18.147-9.494-27.104-18.524c-4.811-4.827-9.534-10.6-14.097-17.528c-1.828-2.774-3.648-5.726-5.428-8.885
		c-0.145-0.281-0.289-0.529-0.426-0.818c-5.116-9.206-9.894-20.094-14.121-32.877c-1.652-4.94-3.215-10.184-4.683-15.717
		c-1.484-5.565-2.87-11.402-4.129-17.585c-5.622-27.264-9.101-60.709-9.422-101.308c6.182-1.982,11.731-4.331,16.799-6.8
		c9.214,26.999,14.698,55.081,14.682,80.845c0,11.852-1.13,23.215-3.528,33.767c-0.898,3.969-1.956,7.827-3.207,11.556v0.024
		c4.025,14.442,8.901,27.328,14.562,38.442c4.955-7.658,8.981-15.797,12.14-24.28c6.993-18.684,9.968-38.859,9.968-59.508
		c-0.032-31.762-6.993-64.759-18.186-95.904c0.096-0.056,0.216-0.136,0.32-0.184c3.841-2.181,7.313-3.913,10.585-5.1
		c0.626-0.225,2.213-0.562,4.675-0.562c2.566,0,6.006,0.337,9.927,0.971c5.894,0.938,12.87,2.494,20.343,3.857
		c7.49,1.363,15.493,2.582,23.848,2.606c3.977,0,8.019-0.281,12.124-1.026c6.158-1.114,12.494-3.328,18.299-7.176
		c5.805-3.818,10.905-9.222,14.77-15.83c2.342-3.977,4.154-8.05,5.357-12.188c1.219-4.138,1.812-8.34,1.812-12.429
		C495.719,195.938,494.789,191.047,493.266,186.604z M465.183,205.047c-0.448,1.524-1.202,3.32-2.422,5.413
		c-1.218,2.044-2.406,3.48-3.624,4.587c-1.812,1.644-3.705,2.687-6.254,3.48c-2.534,0.778-5.741,1.227-9.526,1.211
		c-3.544,0-7.569-0.36-11.851-0.994c-6.431-0.946-13.408-2.445-20.48-3.809c-7.104-1.347-14.289-2.606-21.787-2.622
		c-4.771,0.008-9.767,0.513-14.899,2.374c-7.393,2.694-13.712,6.286-19.67,9.83c-8.926,5.34-17.088,10.6-26.799,14.546
		c-9.71,3.929-21.001,6.752-36.782,6.784c-10.504,0-19.052-1.299-26.43-3.296c-11.074-2.998-19.702-7.594-28.394-12.758
		c-4.338-2.59-8.668-5.308-13.303-7.938c-4.634-2.614-9.582-5.164-15.123-7.168l1.347,0.481l-1.331-0.481
		c-5.14-1.861-10.144-2.366-14.915-2.382c-5.004,0.008-9.848,0.594-14.651,1.356c-7.176,1.154-14.265,2.742-21.025,3.976
		c-6.743,1.243-13.118,2.118-18.435,2.101c-2.534,0-4.803-0.184-6.783-0.537c-2.983-0.554-5.229-1.435-7.137-2.687
		c-1.908-1.299-3.656-2.983-5.477-6.054c-1.242-2.093-1.989-3.889-2.438-5.413c-0.441-1.523-0.601-2.807-0.601-4.025
		c0-1.523,0.249-2.999,0.834-4.715c1.002-2.983,3.199-6.688,6.567-10.818c2.51-3.087,5.605-6.375,9.004-9.799
		c5.108-5.164,10.874-10.616,16.39-16.687c5.485-6.094,10.794-12.838,14.499-21.122c1.812-4.106,3.72-8.772,5.965-13.936
		c3.89-9.014,8.709-19.478,14.931-30.087c4.675-7.922,10.136-15.925,16.535-23.414c9.622-11.226,21.289-21.266,35.835-28.547
		c14.562-7.281,32.083-11.948,54.135-11.98c22.404,0.032,40.126,4.844,54.832,12.325c11.018,5.621,20.352,12.822,28.419,20.92
		c12.084,12.125,21.242,26.326,28.25,39.725c3.512,6.696,6.495,13.183,9.093,19.109c2.582,5.926,4.779,11.266,6.816,15.885
		c3.752,8.42,9.174,15.236,14.755,21.402c4.185,4.627,8.548,8.876,12.637,12.926c6.126,6.038,11.611,11.716,15.091,16.695
		c1.732,2.494,2.983,4.763,3.737,6.744c0.754,2.004,1.058,3.673,1.058,5.373C465.777,202.24,465.633,203.524,465.183,205.047z" style="fill: rgb(61, 169, 252);"></path>
	<path class="st0" d="M243.778,127.626c-7.963,0-14.426,6.463-14.426,14.426c0,7.97,6.463,14.434,14.426,14.434
		c7.97,0,14.434-6.463,14.434-14.434C258.212,134.089,251.749,127.626,243.778,127.626z" style="fill: rgb(61, 169, 252);"></path>
	<path class="st0" d="M333.563,127.626c-7.978,0-14.425,6.463-14.425,14.426c0,7.97,6.447,14.434,14.425,14.434
		c7.971,0,14.435-6.463,14.435-14.434C347.998,134.089,341.534,127.626,333.563,127.626z" style="fill: rgb(61, 169, 252);"></path>
</g>
</svg>
